<svg height="27pt" width="27pt" viewBox="-34 0 470 470.356" xmlns="http://www.w3.org/2000/svg" fill="#ffffff">
    <path d="m125.976562 134.96875c-.445312 19.695312 6.921876 38.769531 20.484376 53.058594 8.617187 9.089844 13.5 21.09375 13.675781 33.617187-2.796875.042969-5.351563 1.585938-6.695313 4.035157-1.34375 2.453124-1.265625 5.433593.203125 7.8125 1.464844 2.378906 4.097657 3.785156 6.890625 3.6875h82.253906c4.417969 0 8-3.582032 8-8 0-4.421876-3.582031-8-8-8h-.476562c.046875-12 4.792969-23.488282 13.972656-33.089844.023438-.027344.046875.058594.070313.035156 13.246093-14.0625 20.644531-32.632812 20.707031-51.945312-.308594-41.273438-33.675781-74.660157-74.949219-74.992188-41.269531-.328125-75.167969 32.519531-76.140625 73.777344zm74.664063-58.421875c15.960937-.207031 31.335937 5.992187 42.691406 17.210937 11.355469 11.214844 17.742188 26.515626 17.730469 42.476563-.066406 15.203125-5.925781 29.808594-16.386719 40.84375-11.933593 12.507813-18.269531 28.101563-18.347656 44.101563h-50.199219c-.273437-16.546876-6.726562-32.390626-18.085937-44.421876-10.65625-11.210937-16.4375-26.1875-16.070313-41.648437.5-31.304687 27.371094-58.0625 58.667969-58.5625zm0 0"/>
    <path d="m176.527344 250.179688c-4.417969 0-8 3.578124-8 8 0 4.417968 3.582031 8 8 8h50.269531c4.417969 0 8-3.582032 8-8 0-4.421876-3.582031-8-8-8zm0 0"/>
    <path d="m207.660156 35.988281v-27.988281c0-4.417969-3.578125-8-8-8-4.417968 0-8 3.582031-8 8v27.988281c0 4.417969 3.582032 8 8 8 4.421875 0 8-3.582031 8-8zm0 0"/>
    <path d="m274.269531 71.792969 20.566407-19.421875c2.089843-1.957032 2.976562-4.886719 2.316406-7.675782-.660156-2.789062-2.757813-5.011718-5.507813-5.832031-2.746093-.816406-5.71875-.101562-7.796875 1.875l-20.5625 19.421875c-2.09375 1.960938-2.976562 4.886719-2.316406 7.679688.65625 2.789062 2.757812 5.011718 5.503906 5.828125 2.75.816406 5.722656.101562 7.796875-1.875zm0 0"/>
    <path d="m119.679688 37.796875c-3.101563-3.148437-8.167969-3.183594-11.316407-.082031-3.148437 3.101562-3.183593 8.167968-.082031 11.316406l19.710938 19.992188c2 2.0625 4.953124 2.894531 7.738281 2.179687 2.785156-.714844 4.96875-2.871094 5.726562-5.644531.753907-2.773438-.035156-5.738282-2.070312-7.769532zm0 0"/>
    <path d="m361.660156 376.167969c4.421875 0 8-3.582031 8-8v-32.667969c0-4.417969-3.246094-8.320312-7.664062-8.320312h-152.335938v-21.679688c0-4.417969-3.578125-8-8-8-4.417968 0-8 3.582031-8 8v21.679688h-152.332031c-4.417969 0-7.667969 3.898437-7.667969 8.320312v32.667969c0 4.417969 3.582032 8 8 8 4.421875 0 8-3.582031 8-8v-24.988281h144v24.988281c0 4.417969 3.582032 8 8 8 4.421875 0 8-3.582031 8-8v-24.988281h144v24.988281c0 4.417969 3.582032 8 8 8zm0 0"/>
    <path d="m201.660156 387.386719c-22.910156 0-41.480468 18.574219-41.480468 41.484375s18.570312 41.484375 41.480468 41.484375c22.914063 0 41.484375-18.574219 41.484375-41.484375-.023437-22.898438-18.582031-41.457032-41.484375-41.484375zm0 66.96875c-14.074218 0-25.480468-11.410157-25.480468-25.484375 0-14.074219 11.40625-25.484375 25.480468-25.484375 14.078125 0 25.484375 11.410156 25.484375 25.484375-.015625 14.070312-11.414062 25.46875-25.484375 25.484375zm0 0"/>
    <path d="m361.660156 387.386719c-22.910156 0-41.480468 18.574219-41.480468 41.484375s18.570312 41.484375 41.480468 41.484375c22.914063 0 41.484375-18.574219 41.484375-41.484375-.023437-22.898438-18.582031-41.457032-41.484375-41.484375zm0 66.96875c-14.074218 0-25.480468-11.410157-25.480468-25.484375 0-14.074219 11.40625-25.484375 25.480468-25.484375 14.078125 0 25.484375 11.410156 25.484375 25.484375-.015625 14.070312-11.414062 25.46875-25.484375 25.484375zm0 0"/>
    <path d="m41.660156 387.386719c-22.910156 0-41.480468 18.574219-41.480468 41.484375s18.570312 41.484375 41.480468 41.484375c22.914063 0 41.484375-18.574219 41.484375-41.484375-.023437-22.898438-18.582031-41.457032-41.484375-41.484375zm0 66.96875c-14.074218 0-25.480468-11.410157-25.480468-25.484375 0-14.074219 11.40625-25.484375 25.480468-25.484375 14.078125 0 25.484375 11.410156 25.484375 25.484375-.015625 14.070312-11.414062 25.46875-25.484375 25.484375zm0 0"/>
</svg>
