<svg xmlns="http://www.w3.org/2000/svg" viewBox="0 0 30 30">
    <path d="M24,5H6C3.791,5,2,6.791,2,9v12c0,2.209,1.791,4,4,4h18c2.209,0,4-1.791,4-4V9C28,6.791,26.209,5,24,5z M9.502,18 c-1.875,0-3.036-1.296-3.036-3.403c0-2.104,1.157-3.399,3.036-3.399c1.534,0,2.709,1.018,2.807,2.426h-1.318 c-0.13-0.743-0.718-1.233-1.489-1.233c-1.018,0-1.65,0.843-1.65,2.206c0,1.363,0.632,2.211,1.655,2.211 c0.776,0,1.359-0.458,1.489-1.171h1.318C12.202,17.036,11.063,18,9.502,18z M16.157,13.964h-1.049v2.224 c0,0.431,0.197,0.628,0.641,0.628c0.17,0,0.256-0.004,0.381-0.018v0.997c-0.161,0.031-0.399,0.058-0.65,0.058 c-1.202,0-1.677-0.391-1.677-1.354v-2.534h-0.785v-1.026h0.785v-1.202h1.305v1.202h1.049V13.964z M20.323,14.058 c-0.103-0.041-0.422-0.081-0.61-0.081c-0.7,0-1.188,0.422-1.188,1.116v2.741H17.22v-4.947h1.265v0.789h0.081 c0.13-0.492,0.637-0.869,1.256-0.869c0.175,0,0.39,0.022,0.502,0.062V14.058z M22.534,17.835h-1.305V11h1.305V17.835z"/>
</svg>