<svg xmlns="http://www.w3.org/2000/svg" viewBox="0 0 30 30">
    <path d="M 6 4 C 4.895 4 4 4.895 4 6 L 4 24 C 4 25.105 4.895 26 6 26 L 24 26 C 25.105 26 26 25.105 26 24 L 26 6 C 26 4.895 25.105 4 24 4 L 6 4 z M 13 13.001953 L 22 13.001953 C 22.552 13.001953 23 13.448953 23 14.001953 L 23 22 C 23 22.553 22.552 23 22 23 L 13 23 C 12.685 23 12.388219 22.851609 12.199219 22.599609 L 9.1992188 18.599609 C 8.9322188 18.244609 8.9322188 17.755391 9.1992188 17.400391 L 12.199219 13.400391 C 12.387219 13.148391 12.685 13.001953 13 13.001953 z M 14.990234 14.990234 A 1.0001 1.0001 0 0 0 14.292969 16.707031 L 15.585938 18 L 14.292969 19.292969 A 1.0001 1.0001 0 1 0 15.707031 20.707031 L 17 19.414062 L 18.292969 20.707031 A 1.0001 1.0001 0 1 0 19.707031 19.292969 L 18.414062 18 L 19.707031 16.707031 A 1.0001 1.0001 0 0 0 18.980469 14.990234 A 1.0001 1.0001 0 0 0 18.292969 15.292969 L 17 16.585938 L 15.707031 15.292969 A 1.0001 1.0001 0 0 0 14.990234 14.990234 z"/>
</svg>