<svg xmlns="http://www.w3.org/2000/svg" viewBox="0 0 30 30">
    <path d="M 23.650391 1.3632812 A 1.0001 1.0001 0 0 0 23.041016 3.1132812 C 24.556747 4.484833 25.719615 6.2282352 26.378906 8.2070312 A 1.0001 1.0001 0 1 0 28.275391 7.5742188 C 27.504682 5.2610149 26.147082 3.2253545 24.382812 1.6289062 A 1.0001 1.0001 0 0 0 23.650391 1.3632812 z M 15 2 C 9.477 2 5 6.477 5 12 L 5 18 C 5 23.523 9.477 28 15 28 C 20.523 28 25 23.523 25 18 L 25 13 L 25 12 C 25 6.477 20.523 2 15 2 z M 15.916016 4.0742188 C 15.988121 4.0681953 16.061719 4.0693281 16.136719 4.0800781 C 20.011719 4.6330781 23 7.975 23 12 L 23 13 C 23 13.552 22.552 14 22 14 L 16 14 C 15.448 14 15 13.552 15 13 L 15 5.078125 C 15 4.547875 15.411277 4.1163828 15.916016 4.0742188 z"/>
</svg>